<svg width="58" height="58" viewBox="0 0 58 58" fill="none" xmlns="http://www.w3.org/2000/svg">
<circle cx="29" cy="29" r="28.5" stroke="#C2A578"/>
<path d="M45.0312 26.6249V21.2811C45.0315 20.8627 44.9211 20.4516 44.7113 20.0896C44.5015 19.7276 44.1997 19.4275 43.8365 19.2197C43.4733 19.0119 43.0616 18.9038 42.6432 18.9064C42.2248 18.909 41.8145 19.0221 41.4539 19.2344C41.3862 18.6313 41.0901 18.0769 40.6264 17.6853C40.1628 17.2936 39.5668 17.0943 38.9608 17.1282C38.3548 17.1622 37.7848 17.4269 37.3679 17.8679C36.9509 18.309 36.7187 18.8929 36.7188 19.4999V26.6249H21.2812V19.4999C21.2805 18.8935 21.0479 18.3104 20.631 17.87C20.2141 17.4297 19.6446 17.1655 19.0392 17.1315C18.4338 17.0976 17.8383 17.2965 17.3748 17.6875C16.9114 18.0785 16.615 18.6319 16.5465 19.2344C16.1859 19.022 15.7755 18.9088 15.357 18.9062C14.9386 18.9035 14.5268 19.0116 14.1636 19.2194C13.8003 19.4272 13.4985 19.7274 13.2887 20.0894C13.0788 20.4515 12.9685 20.8626 12.9688 21.2811V26.6249C12.3389 26.6249 11.7348 26.8751 11.2894 27.3205C10.844 27.7659 10.5938 28.37 10.5938 28.9999C10.5938 29.6298 10.844 30.2339 11.2894 30.6793C11.7348 31.1247 12.3389 31.3749 12.9688 31.3749V36.7186C12.9685 37.1371 13.0788 37.5482 13.2887 37.9103C13.4985 38.2724 13.8003 38.5725 14.1636 38.7803C14.5268 38.9881 14.9386 39.0962 15.357 39.0936C15.7755 39.0909 16.1859 38.9777 16.5465 38.7654C16.615 39.3678 16.9114 39.9213 17.3748 40.3123C17.8383 40.7033 18.4338 40.9022 19.0392 40.8682C19.6446 40.8343 20.2141 40.5701 20.631 40.1297C21.0479 39.6894 21.2805 39.1062 21.2812 38.4999V31.3749H36.7188V38.4999C36.7187 39.1068 36.9509 39.6908 37.3679 40.1318C37.7848 40.5729 38.3548 40.8375 38.9608 40.8715C39.5668 40.9055 40.1628 40.7062 40.6264 40.3145C41.0901 39.9228 41.3862 39.3685 41.4539 38.7654C41.8145 38.9776 42.2248 39.0908 42.6432 39.0934C43.0616 39.0959 43.4733 38.9879 43.8365 38.7801C44.1997 38.5723 44.5015 38.2722 44.7113 37.9101C44.9211 37.5481 45.0315 37.1371 45.0312 36.7186V31.3749C45.6611 31.3749 46.2652 31.1247 46.7106 30.6793C47.156 30.2339 47.4062 29.6298 47.4062 28.9999C47.4062 28.37 47.156 27.7659 46.7106 27.3205C46.2652 26.8751 45.6611 26.6249 45.0312 26.6249ZM12.9688 30.1874C12.6538 30.1874 12.3518 30.0623 12.1291 29.8396C11.9064 29.6169 11.7812 29.3148 11.7812 28.9999C11.7812 28.6849 11.9064 28.3829 12.1291 28.1602C12.3518 27.9375 12.6538 27.8124 12.9688 27.8124V30.1874ZM15.3438 37.9061C15.0289 37.9058 14.7271 37.7805 14.5045 37.5579C14.2819 37.3353 14.1566 37.0335 14.1562 36.7186V21.2811C14.1562 20.9662 14.2814 20.6641 14.5041 20.4414C14.7268 20.2187 15.0288 20.0936 15.3438 20.0936C15.6587 20.0936 15.9607 20.2187 16.1834 20.4414C16.4061 20.6641 16.5312 20.9662 16.5312 21.2811V36.7186C16.5309 37.0335 16.4056 37.3353 16.183 37.5579C15.9604 37.7805 15.6586 37.9058 15.3438 37.9061ZM20.0938 38.4999C20.0938 38.8148 19.9686 39.1169 19.7459 39.3396C19.5232 39.5623 19.2212 39.6874 18.9062 39.6874C18.5913 39.6874 18.2893 39.5623 18.0666 39.3396C17.8439 39.1169 17.7188 38.8148 17.7188 38.4999V19.4999C17.7188 19.1849 17.8439 18.8829 18.0666 18.6602C18.2893 18.4375 18.5913 18.3124 18.9062 18.3124C19.2212 18.3124 19.5232 18.4375 19.7459 18.6602C19.9686 18.8829 20.0938 19.1849 20.0938 19.4999V38.4999ZM21.2812 30.1874V27.8124H36.7188V30.1874H21.2812ZM40.2812 38.4999C40.2812 38.8148 40.1561 39.1169 39.9334 39.3396C39.7107 39.5623 39.4087 39.6874 39.0938 39.6874C38.7788 39.6874 38.4768 39.5623 38.2541 39.3396C38.0314 39.1169 37.9062 38.8148 37.9062 38.4999V19.4999C37.9062 19.1849 38.0314 18.8829 38.2541 18.6602C38.4768 18.4375 38.7788 18.3124 39.0938 18.3124C39.4087 18.3124 39.7107 18.4375 39.9334 18.6602C40.1561 18.8829 40.2812 19.1849 40.2812 19.4999V38.4999ZM43.8438 36.7186C43.8438 37.0336 43.7186 37.3356 43.4959 37.5583C43.2732 37.781 42.9712 37.9061 42.6562 37.9061C42.3413 37.9061 42.0393 37.781 41.8166 37.5583C41.5939 37.3356 41.4688 37.0336 41.4688 36.7186V21.2811C41.4688 20.9662 41.5939 20.6641 41.8166 20.4414C42.0393 20.2187 42.3413 20.0936 42.6562 20.0936C42.9712 20.0936 43.2732 20.2187 43.4959 20.4414C43.7186 20.6641 43.8438 20.9662 43.8438 21.2811V36.7186ZM45.0312 30.1874V27.8124C45.3462 27.8124 45.6482 27.9375 45.8709 28.1602C46.0936 28.3829 46.2188 28.6849 46.2188 28.9999C46.2188 29.3148 46.0936 29.6169 45.8709 29.8396C45.6482 30.0623 45.3462 30.1874 45.0312 30.1874Z" fill="#C2A578"/>
</svg>
